<svg width="60" height="60" viewBox="0 0 60 60" fill="none" xmlns="http://www.w3.org/2000/svg">
<g clip-path="url(#clip0_2002_34)">
<path fill-rule="evenodd" clip-rule="evenodd" d="M45.1196 53.9713V54.2105H50.7656V53.9713H45.1196ZM10.0957 53.9713V54.2105H15.6938V54.0192L15.6459 53.9713H10.0957ZM53.3971 48.9952L53.0144 49.3302V51.1962L53.3971 51.579H54.4019L54.4976 51.5311V51.4833L54.5933 51.4354L54.7847 51.1962V50.1914L54.7368 50.1436H53.9234V50.5742H54.2584L54.3062 50.622V51.0048L54.1627 51.1483H53.6364L53.4928 51.0048V49.5215L53.5885 49.4259H54.2105L54.3541 49.5694V49.7608H54.7847V49.3302L54.4498 48.9952H53.3971ZM49.9522 48.9952V51.579H50.3828V50.0479L50.4306 50L50.5263 50.0479L51.244 51.4833L51.3397 51.579H51.7703V48.9952H51.3397V50.4785L51.2919 50.5263L51.1962 50.4785L50.4306 48.9952H49.9522ZM48.1818 48.9952V51.579H48.6603V48.9952H48.1818ZM45.5502 48.9952V51.579H47.0335L47.0813 51.5311V51.1483H46.0766L46.0287 51.1005V48.9952H45.5502ZM42.7751 48.9952V51.579H44.3541V51.1483H43.3014L43.2057 51.0526V50.5263L43.3014 50.4306H44.1627V50.0479H43.2536L43.2057 50V49.4737L43.2536 49.4259H44.3541V48.9952H42.7751ZM39.7608 48.9952V51.579H41.1483L41.5311 51.1962V49.3302L41.1483 48.9952H39.7608ZM40.2871 49.4259H40.9091L41.0526 49.5694V50.957L40.8612 51.1483H40.2871L40.2392 51.1005V49.4737L40.2871 49.4259ZM37.0813 48.9952L36.7464 49.3302V50.9091L36.6986 50.957V51.1962L37.0813 51.579H38.1818L38.5646 51.1962V49.378L38.1818 48.9952H37.0813ZM37.3206 49.4259H37.9426L38.0861 49.5694V50.957L37.8947 51.1483H37.3684L37.177 51.0048V49.5694L37.3206 49.4259ZM33.2057 48.9952V51.579H33.6364V50.1436L33.5885 50.0957L33.6364 49.9522L33.7321 50L34.1148 51.1962H34.5455L34.9282 50L35.0239 49.9522L35.0718 50V51.579H35.4545L35.5024 51.5311V48.9952H34.9282L34.8804 49.2345L34.7847 49.378L34.7368 49.6172L34.6411 49.7608L34.5933 50L34.3541 50.5263L34.2584 50.4785L33.7799 49.0431L33.7321 48.9952H33.2057ZM30.4306 48.9952V51.579H32.0096V51.1483H31.6746L31.6268 51.1005L30.9569 51.1483L30.8612 51.0526V50.5263L30.9569 50.4306H31.8182V50.0479H30.9569L30.8612 49.9522V49.4737L30.9091 49.4259H32.0096V48.9952H30.4306ZM27.4641 48.9952V51.579H27.8947L27.9426 51.5311V50.6699L27.9904 50.622H28.3254L28.5646 51.1005V51.1962L28.6603 51.3397L28.7081 51.579H29.2345L28.8517 50.6699V50.5742L29.1388 50.2871H29.1866V49.3302L28.8517 48.9952H27.4641ZM27.9426 49.4737L27.9904 49.4259H28.6124L28.7081 49.5215V50.0479L28.5646 50.1914H27.9904L27.9426 50.1436V49.4737ZM23.2057 48.9952L22.9187 49.2823V49.9043L23.11 50.1436L22.7273 50.5263V51.244L23.0622 51.579H23.8278L24.067 51.3397L24.3541 51.579H24.7847L24.3541 51.0048L24.5933 50.5263V50.2393H24.2584V50.4306L24.1148 50.6699L24.0191 50.622L23.7799 50.2871V50.1914L24.1627 49.9043V49.2823L23.9234 48.9952H23.2057ZM23.3493 50.4785H23.445L23.8278 50.957L23.6842 51.1483H23.3014L23.1579 51.0526V50.6699L23.3493 50.4785ZM23.3971 49.378H23.6842L23.7799 49.4737V49.7129L23.5885 49.9043H23.4928L23.3014 49.7129V49.4737L23.3971 49.378ZM18.5646 48.9952L18.2297 49.3302V50L18.6603 50.3828L19.378 50.5263L19.4737 50.6699V51.0048L19.3301 51.1483H18.8517L18.7081 51.0048V50.8134H18.2297V51.244L18.5646 51.579H19.5694L19.9522 51.244V50.4785L19.7129 50.1914L18.8517 49.9522L18.7081 49.8086V49.5215L18.8995 49.378H19.3301L19.4737 49.5215V49.7129H19.9043V49.2823L19.6172 48.9952H18.5646ZM15.311 48.9952V51.579H16.6986L17.0813 51.1962V49.378L16.6986 48.9952H15.311ZM15.8373 49.4259H16.4593L16.6029 49.5694V51.0048L16.4593 51.1483L15.8373 51.1005L15.7895 51.0526V49.4737L15.8373 49.4259ZM12.5359 48.9952V51.579H14.1148V51.1483H13.0622L13.0144 51.1005V50.4785L13.0622 50.4306H13.9234V50.0479H13.0622L13.0144 50V49.4737L13.0622 49.4259H14.1148V48.9952H12.5359ZM9.42584 48.9952V51.579H9.90431V50.5263L9.95216 50.4785H10.7177L10.7656 50.5263V51.579H11.1962L11.244 51.5311V48.9952H10.7656V50L10.7177 50.0479H10L9.90431 49.9522V48.9952H9.42584ZM6.84211 48.9952L6.55503 49.2823H6.50718V50.0479L6.79426 50.3349L7.60766 50.5263L7.7512 50.6699V51.0048L7.60766 51.1483H7.08134L6.9378 51.0048V50.8134H6.45933V51.1962L6.84211 51.579H7.84689L8.22967 51.1962V50.5263L7.94259 50.1914L7.46412 50.0957L7.27273 50H7.12919L6.9378 49.8086V49.5694L7.08134 49.4259H7.46412L7.55981 49.378L7.7512 49.5215V49.7129H8.18182V49.3302L7.84689 48.9952H6.84211ZM29.6651 37.5598H29.4258L29.378 37.512H28.8995L28.8517 37.5598H28.6603V37.7991L28.6124 37.8469V38.0861L28.5646 38.134L28.5167 38.4689L28.3732 38.8995L28.2775 39.0431V39.1388L28.0383 39.6172L27.5598 40.3349L26.6986 41.1962L26.0766 41.6268L25.4067 41.9617H25.311L25.0239 42.1053L24.4976 42.201L24.4498 42.2488L23.9713 42.2967V43.3493H24.2584L24.3062 43.3015H24.5455L24.5933 43.2536H24.7847L24.8325 43.2058L25.1675 43.1579L25.7416 42.9665L26.0766 42.7751H26.1722L27.1292 42.201L27.9426 41.4833L28.5646 40.7177L28.8995 40.1914L29.1866 39.6172L29.5694 38.4689L29.6172 37.9904L29.6651 37.9426V37.5598ZM17.2249 37.512L17.3206 38.3254L17.7034 39.5215L18.134 40.3828L18.8517 41.3397L19.3301 41.8182L19.8086 42.201L20.8612 42.823H20.9569L21.1962 42.9665L21.9139 43.2058H22.1053L22.3923 43.3015H22.6316L22.6794 43.3493H22.9665V42.2967L22.4402 42.2488L22.3923 42.201H22.2488L22.201 42.1531H22.0574L21.6268 42.0096L21.0048 41.7225L20.0957 41.1005L19.2823 40.2393L18.8517 39.5694L18.4689 38.6603V38.5168L18.3732 38.3254L18.3254 37.9426L18.2775 37.8948V37.5598L18.2297 37.512H17.2249ZM23.9713 30.622V31.6747L24.8325 31.8182L25.2632 31.9617L25.4067 32.0574H25.5024L25.9809 32.2967L26.7464 32.823L27.4641 33.5407L27.9426 34.2105L28.3254 34.9761L28.5646 35.6938L28.6124 36.1723L28.6603 36.2201V36.5072H29.7129L29.6651 36.4115L29.6172 35.7416L29.5694 35.6938L29.4737 35.1675L29.3301 34.7369L29.2345 34.5933V34.4976L28.8038 33.6364L28.1818 32.7751L27.4641 32.0574L26.5072 31.3876L25.4545 30.9091H25.311L25.1196 30.8134H24.9761L24.7368 30.7177H24.5455L24.4976 30.6699L23.9713 30.622ZM22.9665 30.622L22.1531 30.7177L21.1005 31.0527L20.2392 31.4833L19.5694 31.9617L18.9474 32.5359V32.5838L18.6124 32.9187L18.0861 33.6842L17.7034 34.4498L17.3684 35.4546V35.646L17.2727 35.8852L17.2249 36.5072H18.2775L18.3254 35.8852L18.3732 35.8373V35.6938L18.4211 35.646V35.5024L18.5646 35.0718L18.8995 34.3541L19.378 33.6364L19.6172 33.3493L20.2871 32.7273L20.8612 32.3445L21.5311 32.0096L22.1053 31.8182H22.2488L22.488 31.7225L22.9665 31.6747V30.622ZM5.07177 30.0479V31.1962L5.02393 31.244L5.07177 32.7273L5.02393 32.7751V33.0144H8.94737L8.99522 33.0622V43.445H12.2967V33.1101L12.3923 33.0144H16.1723V30.0479H5.07177ZM46.2679 30L43.8756 32.2488V41.1483L46.0766 43.3971H46.8421L46.89 43.445L47.0335 43.3971H47.3206L47.3684 43.445H53.1579L55.4545 41.244V32.2488L55.3589 32.201L54.3541 31.1962H54.3062L53.11 30H46.2679ZM47.8947 32.9187H51.2919L51.3397 32.9665H51.5311L52.201 33.5407V39.9043L51.5311 40.5263H47.8469L47.177 39.9043V33.5407L47.8947 32.9187ZM40.0957 30H31.1005V40.6699L31.0526 40.7177V40.8613L31.1005 40.9091V43.3971H34.4019V39.0909L34.4498 39.0431H40.2392L42.3445 36.9857V32.201L40.0957 30ZM34.4498 32.9665L34.4976 32.9187H38.4689L39.0909 33.445V35.5981L38.4689 36.1244H34.4976L34.4498 36.0766V32.9665ZM36.6507 22.4402V24.067H38.2775V22.4402H36.6507ZM34.5933 22.4402V24.067H36.1722V22.4402H34.5933ZM36.6986 20.3349L36.6507 20.3828V21.9617H38.2775V20.3349H36.6986ZM34.5933 20.3349V21.9617H36.1722V20.3349H34.5933ZM7.89474 28.2775H8.75598L8.80383 28.2297H12.0574L12.1053 28.1818H14.5933L14.6412 28.134H17.799L17.8469 28.0861H21.9617L22.0096 28.0383H40.1914L40.2392 28.0861L48.2297 28.134L48.2775 28.1818H50.5742L50.622 28.2297H52.6316V28.1818H52.3923L52.3445 28.134H52.1053L52.0574 28.0861H51.7703L51.7225 28.0383H51.4354L51.3876 27.9904H51.1005L51.0526 27.9426L50.3828 27.8948L50.3349 27.8469H49.9522L49.9043 27.7991L48.7081 27.7034L48.6603 27.6555H48.2297L48.1818 27.6077H47.7512L47.7033 27.5598H47.3206L47.2727 27.512L45.933 27.4641L45.8852 27.4163H45.2632L45.2153 27.3684H44.4976L44.4498 27.3206H43.7321L43.6842 27.2727H42.9187L42.8708 27.2249H42.1053L42.0574 27.1771H41.1962L41.1483 27.1292H40.0478L40 27.0814L37.4641 27.0335L37.4163 26.9857L33.9713 26.9378L33.9234 26.89H31.8182L31.7703 26.8421H29.9522L29.9043 26.7943V17.6555L29.9522 17.6077H30.2871V17.5598L29.7129 17.3206L29.6172 17.2249L28.8038 16.8421L28.7081 16.7464L24.689 14.7369H24.5933L22.1531 13.5407H22.0574L21.7225 13.3493H21.6268L19.9522 14.5933L19.4258 14.9282L19.0909 15.2153L18.2297 15.7895L17.7034 16.2201L16.89 16.7464L16.555 17.0335L16.3636 17.1292L14.5455 18.4689L14.2105 18.6603L14.067 18.8038V27.4163L13.8756 27.512L12.9187 27.5598L12.8708 27.6077H12.488L12.4402 27.6555H12.0574L12.0096 27.7034H11.6268L11.5789 27.7512L10.4785 27.8469L10.4306 27.8948H10.1435L10.0957 27.9426H9.76077L9.71292 27.9904L9.09091 28.0383L9.04306 28.0861H8.80383L8.75598 28.134H8.51675L8.4689 28.1818H8.22967L8.18182 28.2297H7.89474V28.2775ZM21.5311 19.0909L21.5789 19.1388V23.3971L21.5311 23.445V23.5885L21.5789 23.6364V25.7416L21.5311 25.7895V25.933L21.5789 25.9809V26.7464L21.5311 26.7943V27.0814L21.4833 27.1292H21.1962L21.1483 27.1771H20.9569L20.9091 27.1292V25.0718L20.622 24.689L20.4785 24.5933L18.2297 27.3206H17.4641L17.4163 27.3684H17.0813L17.0335 27.3206V19.5694L17.2249 19.4737H17.6555L17.7034 19.4259H18.1818L18.2297 19.378H18.7081L18.756 19.3302H19.1866L19.2345 19.2823H19.6651L19.7129 19.2345H20.2392L20.2871 19.1866H20.7177L20.7656 19.1388L21.5311 19.0909ZM17.7034 21.1005V27.0814H17.7512L19.6651 24.689L20 24.3541L20.1435 24.1627V24.067L17.8469 21.1962L17.7034 21.1005ZM17.799 20.1914V20.2871L18.3254 20.9091L18.4689 21.1483L19.4258 22.3445L19.6651 22.5838L20.4306 23.5885L20.5742 23.6364L20.9091 23.2058V19.9522H20.4785L20.4306 20H20L19.9522 20.0479H19.4737L19.4258 20.0957H18.9474L18.8995 20.1436H18.3732L18.3254 20.1914H17.799ZM26.4593 18.6125L26.5072 18.6603V26.9378L26.4593 26.9857H25.3589L25.2153 27.0335L24.5933 26.4115V26.3637L22.9187 24.5933V24.5455L22.7751 24.4498L22.3445 25.0239V27.0814L22.2967 27.1292H21.7703L21.7225 27.0814V19.0909L21.7703 19.0431H22.1531L22.201 18.9952H22.6316L22.6794 18.9474H23.11L23.1579 18.8995H23.5885L23.6364 18.8517H24.067L24.1148 18.8038H24.5455L24.5933 18.756H25.0718L25.1196 18.7082L26.4593 18.6125ZM25.8373 20.3349L25.2632 21.1962L23.5407 23.4928L23.2057 23.8756L23.1579 24.0192L25.4545 26.4115V26.4593L25.8373 26.8421H25.8852V20.3349H25.8373ZM25.7895 19.4737L22.3445 19.8086V23.1579L22.7273 23.5407H22.823L23.0622 23.1579L24.1627 21.7225L24.2584 21.5311L24.4498 21.3397L24.689 20.957L25.6938 19.6651L25.7895 19.4737ZM27.9904 18.3254L28.0861 18.3732V26.7943L28.0383 26.8421L27.9426 26.7943V18.3732L27.9904 18.3254ZM15.7416 18.1818L15.7895 18.2297V19.6172L15.7416 19.6651V21.866L15.7895 21.9139V22.1531L15.7416 22.201V27.3206L15.6459 27.3684L15.5981 27.3206V19.1388L15.6459 19.0909V18.2297L15.7416 18.1818ZM19.1388 16.3637L19.2345 16.4115V17.9426L19.1866 17.9904L19.0909 17.9426V16.4115L19.1388 16.3637ZM26.0287 16.0766L26.1244 16.1244V17.9904L26.0766 18.0383L25.9809 17.9904V16.1244L26.0287 16.0766ZM24.1627 15.1196L24.2584 15.1675V18.1818L24.2105 18.2297L24.1148 18.1818V15.1675L24.1627 15.1196ZM22.823 15.1675V16.7943L22.6316 16.89H22.3445L22.2967 16.9378L21.5789 16.9857L21.5311 17.0335L20.7656 17.0814L20.7177 17.1292H20.4785L20.4306 17.0814V15.4546L20.622 15.3589H20.9569L21.0048 15.311H21.3397L21.3876 15.2632H21.6746L21.7225 15.2153H22.0096L22.0574 15.1675H22.3445L22.3923 15.1196H22.7751L22.823 15.1675ZM22.3445 15.646L20.9091 15.8373V16.555H21.244L21.2919 16.5072H21.6268L21.6746 16.4593L22.2967 16.4115L22.3445 16.3637V15.646ZM28.8038 14.2105L27.9426 13.9235L27.799 13.8278L26.9378 13.5407L26.7943 13.445L26.555 13.3971L26.4115 13.3015L26.0287 13.2058L25.4067 12.9187L25.0239 12.823L24.6411 12.6316L23.8756 12.3924L23.7321 12.2967L22.8708 12.0096L22.7273 11.9139L22.488 11.866L22.3445 11.7704L21.9617 11.6747L21.8182 11.579H21.6268L20.8134 12.201L20.4785 12.3924L20.3349 12.5359L18.3732 13.8756L17.8947 14.2584L17.5598 14.4498L17.4163 14.5933L17.2249 14.689L16.0766 15.5503L15.7416 15.7416L13.9234 17.0814L12.2488 18.2297V18.2775L12.5359 18.3732H12.6794L12.7273 18.4211H12.9187L12.9665 18.4689L13.3014 18.5168L13.3493 18.5646H13.6364L14.3541 17.9904L14.8804 17.6555L16.2679 16.6029L16.9378 16.1723L17.2727 15.8852L17.799 15.5503L18.134 15.2632L18.9952 14.689L19.5215 14.2584L19.7129 14.1627L20.0478 13.8756L20.2392 13.7799L20.5742 13.4928L21.6746 12.7273L21.866 12.7751L22.9665 13.3015H23.0622L24.1148 13.8278H24.2105L27.7512 15.5503L27.8947 15.5024L28.134 15.1196L28.7081 14.4019L28.8038 14.2105ZM28.0861 9.66509V9.76079L28.756 9.4737L29.1866 9.33016L29.5215 9.28232L29.5694 9.23447H29.8086L29.8565 9.18662H30.6699L30.7177 9.23447H30.9569L31.4833 9.42586L31.9139 9.76079L32.1053 10.0479L32.201 10.3349V10.5742L32.1531 10.622L32.1053 10.9091L31.7225 11.5311L33.6364 12.8708H33.7799L34.3541 12.2967L34.7368 12.1053L35.0718 12.0574L35.1196 12.0096H35.4067L35.4545 12.0574L35.7895 12.1053L36.0287 12.2488L36.3158 12.5359L36.4593 12.823V12.9665L36.555 13.0622L36.6986 13.1101L37.2249 13.4928H37.3684L37.5598 13.3493L37.9904 12.6794L38.8038 11.579V11.2919L38.0861 10.7656H37.8947L37.8469 10.8134H37.2249L36.7464 10.5742L36.3636 10.1436L36.2201 9.80863V9.66509L36.1722 9.61724V9.4737L35.9809 8.99524L35.7416 8.80385L35.2153 8.46892L34.4498 8.08614L33.7321 7.84691L33.3493 7.79906L33.3014 7.75122H33.0144L32.9665 7.70337H31.6268L31.5789 7.75122H31.2919L31.244 7.79906H31.0526L31.0048 7.84691L30.5263 7.9426L29.6651 8.32538L29.1388 8.66031L28.6603 9.04308L28.0861 9.66509Z" fill="white"/>
<path fill-rule="evenodd" clip-rule="evenodd" d="M41.6268 53.1101L41.3397 53.3972V54.0192L41.7225 54.3063H41.9617L42.0096 54.3541L42.3445 54.402L42.488 54.5455V54.7847L42.3445 54.9283H41.9139L41.7225 54.7847V54.5933H41.3397V55.024L41.5789 55.2632H42.6316L42.8708 55.024V54.3063L42.6794 54.1149L42.201 54.0192L41.8182 53.8756L41.7703 53.8278V53.5886L41.9139 53.445H42.2966L42.4402 53.5886L42.488 53.7321H42.8708V53.3972L42.5837 53.1101H41.6268ZM37.9426 53.1101V53.7321L37.8947 53.7799L37.9426 53.8756L37.8947 53.9713V55.2632H39.3301V54.8804H38.3732L38.3254 54.8326V54.402L38.421 54.3063H39.1866V53.9713H38.421L38.3254 53.8756V53.5407L38.3732 53.4929H39.3301V53.1101H37.9426ZM34.5933 53.1101L34.3062 53.3972V54.9761L34.5933 55.2632H35.6459L35.933 54.9761V54.5455H35.5024V54.7847L35.4067 54.8804L34.8804 54.9283L34.7368 54.7847V53.5886L34.8325 53.4929H35.4067L35.5024 53.5886V53.7799H35.933V53.3972L35.6459 53.1101H34.5933ZM31.8182 53.1101V55.1675L31.866 55.2632H32.2488V53.8278L32.2966 53.7799L32.2488 53.1101H31.8182ZM28.0861 53.1101L28.756 55.2632H29.2344L29.9043 53.2536V53.1101H29.4737L29.3301 53.5407V53.6842L29.2344 53.8756L29.1866 54.2106L29.0909 54.402V54.5455L28.9952 54.5933L28.8995 54.4498V54.3063L28.8038 54.1149V53.9713L28.5646 53.2536V53.1101H28.0861ZM24.689 53.1101V55.2632H25.0718V54.689L25.1675 54.4498H25.4067L25.5024 54.5455L25.7895 55.2632H26.2679L25.933 54.4498L26.2201 54.1627V53.3972L25.933 53.1101H24.689ZM25.0718 53.5407L25.1675 53.445H25.5981L25.6938 53.4929L25.8373 53.6364V53.9235L25.7416 54.067H25.2632L25.1675 54.1149L25.0718 54.0192V53.5407ZM21.244 53.1101V55.2632H22.6794V54.8804H21.7225L21.6746 54.8326V54.402L21.7703 54.3063H22.488V53.9713H21.7225L21.6746 53.9235V53.5407L21.7225 53.4929H22.488L22.5359 53.445H22.6794V53.1101H21.244ZM17.9904 53.1101L17.7033 53.3972V53.9713L18.0861 54.3063H18.3254L18.3732 54.3541L18.7081 54.402L18.8517 54.5455V54.7847L18.7081 54.9283H18.2775L18.0861 54.7847V54.5933H17.7033V55.024L17.9426 55.2632H18.9952L19.2823 54.9761V54.402L19.2344 54.3063L19.0431 54.1149L18.5646 54.0192L18.1818 53.8756L18.134 53.8278V53.5886L18.2775 53.445H18.7081L18.8517 53.5886V53.7321H19.2344V53.3972L18.9474 53.1101H17.9904ZM35.933 45.8374V46.4115H54.8325V45.8852L54.7847 45.8374H35.933ZM6.36363 45.8852V46.4115H23.7321L23.7799 46.3637V45.8852L23.7321 45.8374H6.41148L6.36363 45.8852ZM32.4402 44.5933L31.9617 45.024V47.1771L32.3923 47.6077H33.7321L34.2105 47.1771V46.6029H33.5885V46.9378L33.445 47.0814H32.7751L32.5837 46.89V45.311L32.823 45.1197H33.445L33.5885 45.2632V45.5503L33.6364 45.5981H34.1627L34.2105 45.5503V45.024L33.7799 44.5933H32.4402ZM28.8995 44.5933L28.8517 44.6412V47.6077H30.8612V47.0814H29.5694L29.5215 47.0335V44.5933H28.8995ZM25.6938 44.5933L25.6459 44.6412V47.6077H27.7033V47.0814H26.3636L26.3158 47.0335V44.5933H25.6938ZM23.2536 39.0909V44.4498H23.6842V39.0909H23.2536ZM26.9378 37.512H25.933L25.8373 37.8948L25.4545 38.5646L24.9761 39.0431L24.4019 39.378L24.1148 39.4737H23.9713L23.9234 39.5216V40.4307L23.9713 40.5264L24.4019 40.4785L24.8325 40.335L25.5981 39.9043L26.2679 39.2345L26.7464 38.4211L26.8899 37.9905V37.8469L26.9378 37.7991V37.512ZM19.9521 37.512L20.1435 38.3254L20.4306 38.8996L20.8134 39.4259L21.1483 39.7608L21.6268 40.0957L22.488 40.4785L22.9665 40.5264V39.5216L22.7751 39.4259H22.6316L22.1531 39.1866L21.8182 38.9474L21.5311 38.6603L21.2919 38.3254L21.1005 37.9426L21.0048 37.6555V37.512H19.9521ZM25.5024 36.8421V37.2249H28.421L28.4689 37.2728H28.7081L28.756 37.2249H29.3301L29.378 37.2728L29.5215 37.2249H30.622V36.8421L30.5263 36.7943H25.5981L25.5024 36.8421ZM16.2679 36.7943V37.2249H16.9378L16.9856 37.2728H17.3684L17.4163 37.2249H21.4354V36.8421L21.3397 36.7943H16.2679ZM23.1579 35.8374L22.823 35.9809L22.488 36.3158L22.2966 36.7465V37.2728L22.488 37.7034L22.9187 38.0862L23.2057 38.1819H23.7321L24.1627 37.9905L24.4498 37.7034L24.6411 37.2249V36.7943L24.4976 36.4115L24.1627 36.0287L23.7799 35.8374H23.1579ZM23.9713 33.445V34.4976L24.4498 34.6412L24.7368 34.7847L25.3588 35.311L25.5981 35.646L25.8373 36.1244L25.933 36.5072H26.9856L26.8899 35.9809L26.7464 35.6938V35.5981L26.5072 35.1197L26.1722 34.6412L25.7895 34.2584L25.2632 33.8756L24.7847 33.6364L24.3541 33.4929H24.2105L24.1627 33.445H23.9713ZM22.9665 33.445H22.7751L22.7273 33.4929L22.2488 33.5886L21.5789 33.9235L21.244 34.1627L20.6699 34.7369L20.1914 35.5503L20 36.1244L19.9521 36.5072H21.0048L21.1005 36.0287L21.4832 35.4067L21.9139 34.9761L22.201 34.7847L22.7273 34.5455L22.9665 34.4976V33.445ZM23.2536 29.4737V34.8804H23.6842V29.4737H23.2536ZM15.6459 26.8421V27.3206H15.6938V26.8421H15.6459ZM15.6938 18.2297V18.5168H15.7416V18.2297H15.6938ZM37.9426 17.8948L37.9904 17.9905L38.756 18.5646L38.9952 18.8039L40.7177 20.1436L40.9569 20.3828L44.7847 23.445V27.3206H45.2153V23.2058L40.8612 19.9522L40.3349 19.6173L38.6124 18.3254L37.9426 17.8948ZM37.7033 17.7034V17.7512L37.799 17.7991V17.7512L37.7033 17.7034ZM26.0287 17.7034V17.9905H26.0766V17.7034H26.0287ZM24.1627 17.7034V18.1819H24.2105V17.7034H24.1627ZM26.0287 16.1244V16.3158H26.0766V16.1244H26.0287ZM24.1627 15.1675V15.5503H24.2105V15.1675H24.1627ZM30.5742 17.6555V26.7943H31.7703L31.8182 26.8421H32.1531L32.201 26.7943V18.4689L33.3493 17.6077L33.5407 17.4163L35.6459 15.8852L35.8373 15.6938L36.4115 16.1244L36.7464 16.3158L37.4163 16.8421L37.6077 16.9378L37.7512 17.0814L37.9426 17.1771L38.0861 17.3206L38.2775 17.4163L38.421 17.5598L38.6124 17.6555L38.756 17.7991L38.9474 17.8948L39.6172 18.4211L39.8086 18.5168L41.5789 19.8565L41.7703 19.9522L43.5885 21.3398L44.689 22.1053L45.0718 22.4402L45.4545 22.6795L45.6938 22.9187V27.3685H45.8852L45.933 27.4163H46.6507L46.6986 27.4642H47.2727V27.2728L47.3206 27.2249V26.9378L47.2727 26.89V24.1627L47.3206 24.1149V23.7799L47.3684 23.7321H49.8565V23.6843L49.4737 23.3972L49.2823 23.3015L48.756 22.8709L48.0383 22.3924L43.6364 19.0909L43.445 18.9953L43.11 18.7082L42.2488 18.134L42.0574 17.9426L41.7225 17.7512L39.4737 16.0766L39.1388 15.8852L38.8038 15.5981L38.6124 15.5024L38.4689 15.3589L38.2775 15.2632L38.134 15.1197L37.9426 15.024L36.9378 14.2584L35.8852 13.5407H35.7895L34.3062 14.7369L33.0144 15.6938L32.7751 15.9331L31.0526 17.2249L30.5742 17.6555ZM31.5789 11.9618H31.4832L31.3397 12.1053L31.1962 12.3445L30.7655 12.823L30.622 13.0622L30.2392 13.4929L30.0957 13.7321L28.421 15.8374L28.4689 15.9331L28.8038 16.0766L28.8995 16.1723L29.1388 16.268L29.2344 16.3637L29.4737 16.4594L29.5694 16.5551L29.9043 16.6986L30.1914 16.89H30.2392L30.6699 16.4115L33.2536 13.1579V13.1101L32.7751 12.823L32.6316 12.6795L32.1531 12.3924L31.5789 11.9618ZM15.1675 15.0718L15.1196 15.7417L15.2632 15.6938L15.5502 15.4546V15.1675L15.5981 15.1197L15.7895 14.2106L16.0287 13.4929L16.1244 13.3493L16.3158 12.7752L16.555 12.3445V12.2488L16.6986 12.0575L16.9856 11.4354L17.0813 11.3398L17.4163 10.7177L18.1818 9.61727L18.421 9.37803L18.6124 9.09095L19.0431 8.66033V8.61248L19.8565 7.79908L20.7655 7.03353L21.4832 6.50722L22.6316 5.78951L24.2105 5.02396H24.3062L24.689 4.83258L25.8373 4.4498H25.9809L26.555 4.25841H26.7464L26.7943 4.21057L27.2249 4.16272L27.512 4.06703L28.0861 4.01918L28.134 3.97133L29.1388 3.92349L29.1866 3.87564H30.7177L30.7655 3.92349L31.7703 3.97133L31.8182 4.01918H32.0574L32.1053 4.06703H32.3445L32.3923 4.11487L33.0622 4.21057L33.11 4.25841L33.445 4.30626L33.6364 4.40195H33.7799L33.9713 4.49765H34.1148L34.5455 4.64119L34.689 4.73688L34.9282 4.78473L35.0718 4.88042L35.6459 5.07181L35.9809 5.2632H36.0766L37.0813 5.78951L38.2775 6.55506L39.378 7.41631L41.0048 9.09095L41.6268 9.90435L42.2966 10.957L42.9187 12.201V12.2967L43.1579 12.7752L43.2536 13.1579L43.3493 13.3015V13.445L43.5885 14.067L43.6842 14.5933L43.8277 14.9761V15.1675L43.9234 15.4546V15.6938L43.9713 15.7417V15.9809L44.0191 16.0287V16.268L44.067 16.3158L44.1148 17.1292L44.1627 17.1771V17.7034L44.2105 17.7512V18.9953H44.2584L44.3062 17.9905L44.3541 17.9426V16.0766L44.3062 16.0287V15.5981L44.2584 15.5503L44.1627 14.6412L44.1148 14.5933V14.402L44.067 14.3541V14.1627L44.0191 14.1149V13.9235L43.9713 13.8756L43.8756 13.3493L43.7799 13.1579V13.0144L43.4928 12.1532L43.1579 11.4354V11.3398L42.9187 10.9091V10.8134L42.1053 9.37803L41.3876 8.37325L40.9091 7.79908L40.3828 7.27277V7.22492L39.2823 6.22014L37.799 5.1675L36.9856 4.73688L36.8899 4.64119L35.7895 4.11487H35.6938L35.2153 3.87564L34.8325 3.77995L34.689 3.68425H34.5455L34.067 3.49286H33.9234L33.2057 3.25363H33.0144L32.9665 3.20578H32.7751L32.488 3.11009H32.2488L32.201 3.06224L31.5789 3.01439L31.5311 2.96655H31.0048L30.9569 2.9187H28.8038L28.756 2.96655H28.2775L28.2297 3.01439L27.2727 3.11009L27.0335 3.20578H26.7943L26.7464 3.25363H26.555L26.5072 3.30148L25.7895 3.44502L25.5981 3.54071H25.4545L24.5933 3.82779L24.4498 3.92349H24.3541L24.2105 4.01918L23.6364 4.21057L22.2966 4.88042L20.9569 5.74167L19.6651 6.7943L18.7081 7.75124L17.9426 8.66033L16.9856 10.0479L16.3636 11.1962V11.2919L16.0766 11.8182V11.9139L15.6938 12.7752V12.9187L15.5024 13.3972V13.5886L15.3588 14.0192L15.311 14.4976L15.2632 14.5455L15.2153 15.024L15.1675 15.0718Z" fill="#FAB240"/>
</g>
<defs>
<clipPath id="clip0_2002_34">
<rect width="60" height="60" fill="white"/>
</clipPath>
</defs>
</svg>
